<svg width="35" height="35" viewBox="0 0 35 35" fill="none" xmlns="http://www.w3.org/2000/svg">
<g id="007-weather" clip-path="url(#clip0_103_161)">
<g id="Group">
<g id="Group_2">
<g id="Group_3">
<g id="Group_4">
<path id="Vector" d="M17.5 27.7539C11.846 27.7539 7.24609 23.154 7.24609 17.5C7.24609 11.846 11.846 7.24609 17.5 7.24609C18.0663 7.24609 18.5254 7.7052 18.5254 8.27148V26.7285C18.5254 27.2948 18.0663 27.7539 17.5 27.7539Z" fill="#FDBF00"/>
</g>
</g>
</g>
<path id="Vector_2" d="M33.9746 16.4747H32.3808L33.162 15.1216C33.4452 14.6311 33.2772 14.0039 32.7867 13.7209C32.2962 13.4376 31.6691 13.6057 31.386 14.0962L30.0128 16.4747H19.9755L27.073 9.37718L29.7258 10.088C29.8147 10.1118 29.904 10.1233 29.9919 10.1233C30.4446 10.1233 30.859 9.82111 30.9817 9.36303C31.1283 8.81602 30.8037 8.2537 30.2567 8.10713L28.7474 7.70272L29.7778 6.67241C30.1782 6.27203 30.1782 5.62275 29.7778 5.2223C29.3774 4.82192 28.7281 4.82192 28.3276 5.2223L27.2973 6.25268L26.8929 4.74344C26.7462 4.19643 26.1842 3.87227 25.637 4.01842C25.0899 4.16505 24.7654 4.72731 24.912 5.27432L25.6228 7.92721L18.5254 15.0246V4.98721L20.9039 3.61401C21.3943 3.33086 21.5624 2.7038 21.2792 2.21333C20.996 1.72278 20.3688 1.55482 19.8785 1.83803L18.5254 2.61924V1.02551C18.5254 0.459224 18.0663 0.00012207 17.5 0.00012207C16.9337 0.00012207 16.4746 0.459224 16.4746 1.02551V33.9746C16.4746 34.5409 16.9337 35 17.5 35C18.0663 35 18.5254 34.5409 18.5254 33.9746V32.3809L19.8785 33.1621C20.04 33.2554 20.2163 33.2997 20.3902 33.2997C20.7446 33.2997 21.0893 33.1158 21.2792 32.7868C21.5624 32.2964 21.3943 31.6692 20.9039 31.3862L18.5254 30.0129V19.9755L25.6228 27.073L24.912 29.7259C24.7654 30.2729 25.0901 30.8352 25.6371 30.9817C25.726 31.0055 25.8152 31.017 25.9031 31.017C26.3558 31.017 26.7702 30.7147 26.8929 30.2567L27.2973 28.7475L28.3276 29.7778C28.5278 29.978 28.7902 30.0782 29.0526 30.0782C29.315 30.0782 29.5775 29.978 29.7776 29.7778C30.1781 29.3774 30.1781 28.7281 29.7776 28.3277L28.7472 27.2973L30.2565 26.8929C30.8036 26.7463 31.1281 26.184 30.9816 25.637C30.8349 25.09 30.2729 24.7654 29.7257 24.9121L27.0728 25.6229L19.9755 18.5254H30.0128L31.386 20.9039C31.5759 21.233 31.9206 21.4168 32.275 21.4168C32.449 21.4168 32.6253 21.3725 32.7867 21.2792C33.2771 20.9961 33.4452 20.369 33.162 19.8785L32.3809 18.5254H33.9746C34.5409 18.5254 35 18.0663 35 17.5001C35 16.9338 34.5409 16.4747 33.9746 16.4747Z" fill="#7DD5F4"/>
<g id="Group_5">
<path id="Vector_3" d="M4.31033 18.5254H1.02539C0.459102 18.5254 0 18.0663 0 17.5C0 16.9337 0.459102 16.4746 1.02539 16.4746H4.31033C4.87662 16.4746 5.33572 16.9337 5.33572 17.5C5.33572 18.0663 4.87662 18.5254 4.31033 18.5254Z" fill="#FDBF00"/>
</g>
<g id="Group_6">
<path id="Vector_4" d="M8.17345 9.19892C7.91102 9.19892 7.64859 9.09884 7.44844 8.89854L5.12565 6.57576C4.72521 6.17531 4.72521 5.5261 5.12565 5.12565C5.5261 4.72521 6.17538 4.72521 6.57576 5.12565L8.89854 7.44844C9.29899 7.84889 9.29899 8.4981 8.89854 8.89854C8.69832 9.09884 8.43582 9.19892 8.17345 9.19892Z" fill="#FDBF00"/>
</g>
<g id="Group_7">
<path id="Vector_5" d="M5.85074 30.1748C5.5883 30.1748 5.32587 30.0747 5.12572 29.8744C4.72527 29.4741 4.72527 28.8248 5.12572 28.4243L7.4485 26.1016C7.84888 25.7012 8.49816 25.7012 8.89861 26.1016C9.29906 26.5019 9.29906 27.1512 8.89861 27.5517L6.57582 29.8744C6.3756 30.0747 6.11317 30.1748 5.85074 30.1748Z" fill="#FDBF00"/>
</g>
<g id="Group_8">
<path id="Vector_6" d="M12.557 6.29743C12.1515 6.29743 11.7674 6.05516 11.6061 5.65608L10.3749 2.61053C10.1627 2.08546 10.4162 1.4878 10.9412 1.27561C11.4662 1.06329 12.064 1.3169 12.2762 1.8419L13.5073 4.88745C13.7196 5.41251 13.466 6.01018 12.941 6.22237C12.8152 6.27336 12.685 6.29743 12.557 6.29743Z" fill="#FDBF00"/>
</g>
<g id="Group_9">
<path id="Vector_7" d="M2.22659 24.7C1.82101 24.7 1.43697 24.4578 1.27564 24.0587C1.06339 23.5336 1.31693 22.936 1.84193 22.7238L4.88741 21.4926C5.41241 21.2804 6.01015 21.5339 6.22233 22.0589C6.43459 22.584 6.18104 23.1816 5.65604 23.3938L2.61056 24.625C2.48472 24.676 2.35456 24.7 2.22659 24.7Z" fill="#FDBF00"/>
</g>
<g id="Group_10">
<path id="Vector_8" d="M11.2523 33.7697C11.1228 33.7697 10.9912 33.745 10.8639 33.6929C10.3399 33.4781 10.0891 32.8792 10.3039 32.3552L11.5496 29.3156C11.7645 28.7917 12.3631 28.5409 12.8873 28.7557C13.4113 28.9705 13.662 29.5693 13.4472 30.0933L12.2015 33.1329C12.039 33.5295 11.6561 33.7697 11.2523 33.7697Z" fill="#FDBF00"/>
</g>
<g id="Group_11">
<path id="Vector_9" d="M5.29505 13.5241C5.16551 13.5241 5.03392 13.4994 4.90663 13.4472L1.86703 12.2016C1.34299 11.9868 1.09225 11.388 1.30703 10.864C1.52182 10.34 2.12072 10.0893 2.64462 10.304L5.68422 11.5497C6.20826 11.7644 6.45901 12.3633 6.24422 12.8872C6.08166 13.284 5.69885 13.5241 5.29505 13.5241Z" fill="#FDBF00"/>
</g>
<path id="Vector_10" d="M33.9746 16.4747H32.3808L33.162 15.1216C33.4452 14.6311 33.2772 14.0039 32.7867 13.7209C32.2962 13.4376 31.6691 13.6057 31.386 14.0962L30.0128 16.4747H19.9755L27.073 9.37718L29.7258 10.088C29.8147 10.1118 29.904 10.1233 29.9919 10.1233C30.4446 10.1233 30.859 9.82111 30.9817 9.36303C31.1283 8.81602 30.8037 8.2537 30.2567 8.10713L28.7474 7.70272L29.7778 6.67241C30.1782 6.27203 30.1782 5.62275 29.7778 5.2223C29.3774 4.82192 28.7281 4.82192 28.3276 5.2223L27.2973 6.25268L26.8929 4.74344C26.7462 4.19643 26.1842 3.87227 25.637 4.01842C25.0899 4.16505 24.7654 4.72731 24.912 5.27432L25.6228 7.92721L18.5254 15.0246V4.98721L20.9039 3.61401C21.3943 3.33086 21.5624 2.7038 21.2792 2.21333C20.996 1.72278 20.3688 1.55482 19.8785 1.83803L18.5254 2.61924V1.02551C18.5254 0.459224 18.0663 0.00012207 17.5 0.00012207V35C18.0663 35 18.5254 34.5409 18.5254 33.9746V32.3809L19.8785 33.1621C20.04 33.2554 20.2163 33.2997 20.3902 33.2997C20.7446 33.2997 21.0893 33.1158 21.2792 32.7868C21.5624 32.2964 21.3943 31.6692 20.9039 31.3862L18.5254 30.0129V19.9755L25.6228 27.073L24.912 29.7259C24.7654 30.2729 25.0901 30.8352 25.6371 30.9817C25.726 31.0055 25.8152 31.017 25.9031 31.017C26.3558 31.017 26.7702 30.7147 26.8929 30.2567L27.2973 28.7475L28.3276 29.7778C28.5278 29.978 28.7902 30.0782 29.0526 30.0782C29.315 30.0782 29.5775 29.978 29.7776 29.7778C30.1781 29.3774 30.1781 28.7281 29.7776 28.3277L28.7472 27.2973L30.2565 26.8929C30.8036 26.7463 31.1281 26.184 30.9816 25.637C30.8349 25.09 30.2729 24.7654 29.7257 24.9121L27.0728 25.6229L19.9755 18.5254H30.0128L31.386 20.9039C31.5759 21.233 31.9206 21.4168 32.275 21.4168C32.449 21.4168 32.6253 21.3725 32.7867 21.2792C33.2771 20.9961 33.4452 20.369 33.162 19.8785L32.3809 18.5254H33.9746C34.5409 18.5254 35 18.0663 35 17.5001C35 16.9338 34.5409 16.4747 33.9746 16.4747Z" fill="#4793FF"/>
</g>
</g>
<defs>
<clipPath id="clip0_103_161">
<rect width="35" height="35" fill="white"/>
</clipPath>
</defs>
</svg>
