<svg width="35" height="35" viewBox="0 0 35 35" fill="none" xmlns="http://www.w3.org/2000/svg">
<g id="010-clouds-and-sun" clip-path="url(#clip0_103_223)">
<g id="Group">
<g id="Group_2">
<path id="Vector" d="M21.0195 23.193C16.8115 23.1932 13.3691 19.7897 13.3303 15.5731C13.2914 11.3327 16.7096 7.85113 20.9499 7.81216C20.9738 7.81196 20.9979 7.81189 21.0217 7.81189C25.2297 7.81189 28.6722 11.2153 28.7108 15.4318C28.7497 19.6722 25.3316 23.1538 21.0912 23.1927C21.0675 23.193 21.0433 23.193 21.0195 23.193Z" fill="#FDBF00"/>
</g>
<path id="Vector_2" d="M21.0216 7.81189C21.0213 7.81189 21.0208 7.81189 21.0205 7.81189V23.193C21.044 23.193 21.0677 23.193 21.0911 23.1927C25.3315 23.1539 28.7496 19.6723 28.7107 15.4319C28.6721 11.2153 25.2296 7.81189 21.0216 7.81189Z" fill="#FF8856"/>
<g id="Group_3">
<path id="Vector_3" d="M21.0506 6.35025C20.4886 6.35025 20.0306 5.89737 20.0254 5.33429L19.9999 2.55856C19.9947 1.99227 20.4495 1.529 21.0158 1.5238H21.0255C21.5875 1.5238 22.0455 1.97668 22.0506 2.53976L22.0761 5.31549C22.0813 5.88178 21.6265 6.34505 21.0602 6.35025C21.057 6.35025 21.0538 6.35025 21.0506 6.35025Z" fill="#FDBF00"/>
</g>
<g id="Group_4">
<path id="Vector_4" d="M31.1988 16.4347C30.6368 16.4347 30.1788 15.9818 30.1736 15.4188C30.1684 14.8525 30.6232 14.3892 31.1895 14.384L33.9653 14.3585H33.9749C34.5369 14.3585 34.9949 14.8114 35 15.3745C35.0052 15.9408 34.5504 16.404 33.9841 16.4092L31.2084 16.4347C31.2052 16.4347 31.202 16.4347 31.1988 16.4347Z" fill="#FF8856"/>
</g>
<g id="Group_5">
<path id="Vector_5" d="M28.2748 9.26491C28.0155 9.26491 27.7562 9.16722 27.5565 8.97124C27.1524 8.57448 27.1464 7.92527 27.5432 7.5212L29.4878 5.54042C29.8847 5.13635 30.5338 5.13033 30.9379 5.52709C31.342 5.92385 31.348 6.57306 30.9513 6.97713L29.0065 8.95791C28.8058 9.16237 28.5404 9.26491 28.2748 9.26491Z" fill="#FF8856"/>
</g>
<g id="Group_6">
<path id="Vector_6" d="M13.8812 9.39709C13.622 9.39709 13.3626 9.29941 13.1629 9.10342L11.1821 7.15867C10.7781 6.76191 10.7721 6.1127 11.1688 5.70863C11.5656 5.30456 12.2148 5.29854 12.6188 5.6953L14.5996 7.64005C15.0037 8.03681 15.0097 8.68602 14.613 9.09009C14.4123 9.29455 14.1468 9.39709 13.8812 9.39709Z" fill="#FDBF00"/>
</g>
<g id="Group_7">
<path id="Vector_7" d="M24.9635 7.09412C24.8353 7.09412 24.7051 7.06992 24.5791 7.01892C24.0541 6.80639 23.8009 6.20859 24.0135 5.68366L25.0551 3.11068C25.2676 2.58575 25.8657 2.33261 26.3903 2.54501C26.9152 2.75754 27.1685 3.35534 26.9559 3.88027L25.9143 6.45325C25.7528 6.85206 25.3688 7.09412 24.9635 7.09412Z" fill="#FF8856"/>
</g>
<g id="Group_8">
<path id="Vector_8" d="M33.1511 21.3897C33.023 21.3897 32.8927 21.3655 32.7667 21.3145L30.1937 20.2729C29.6688 20.0604 29.4155 19.4626 29.6281 18.9376C29.8406 18.4126 30.4388 18.1595 30.9633 18.3719L33.5363 19.4136C34.0612 19.6261 34.3145 20.2239 34.1019 20.7489C33.9404 21.1477 33.5565 21.3897 33.1511 21.3897Z" fill="#FF8856"/>
</g>
<g id="Group_9">
<path id="Vector_9" d="M11.7093 12.7087C11.5812 12.7087 11.4509 12.6845 11.3249 12.6335L8.7519 11.5917C8.22696 11.3792 7.97369 10.7814 8.18622 10.2565C8.39875 9.73147 8.99662 9.47833 9.52149 9.6908L12.0945 10.7325C12.6194 10.9451 12.8727 11.5429 12.6601 12.0678C12.4987 12.4667 12.1147 12.7087 11.7093 12.7087Z" fill="#FDBF00"/>
</g>
<g id="Group_10">
<path id="Vector_10" d="M30.5167 12.558C30.1172 12.558 29.7376 12.3233 29.5721 11.9324C29.3512 11.4109 29.5948 10.8091 30.1163 10.5882L32.6723 9.50545C33.1938 9.28452 33.7956 9.52822 34.0164 10.0497C34.2373 10.5711 33.9936 11.1729 33.4722 11.3938L30.9162 12.4766C30.7857 12.5318 30.65 12.558 30.5167 12.558Z" fill="#FF8856"/>
</g>
<g id="Group_11">
<path id="Vector_11" d="M17.1743 7.15653C16.7749 7.15653 16.3953 6.92178 16.2297 6.53084L15.1469 3.97488C14.9261 3.45343 15.1697 2.85167 15.6911 2.63073C16.2124 2.40972 16.8143 2.65349 17.0352 3.17487L18.118 5.73083C18.3389 6.25227 18.0953 6.85404 17.5738 7.07498C17.4433 7.13035 17.3076 7.15653 17.1743 7.15653Z" fill="#FDBF00"/>
</g>
<g id="Group_12">
<path id="Vector_12" d="M15.2441 33.476C14.0295 33.476 12.8408 33.0566 11.8971 32.2949C11.3956 31.89 10.9732 31.3975 10.649 30.8477C9.94868 31.2861 9.13028 31.5291 8.28741 31.5291C6.29269 31.5291 4.57618 30.1942 4.02527 28.3521C3.09777 28.2632 2.21225 27.8846 1.50247 27.2577C0.547627 26.4142 0 25.1996 0 23.9253C0 21.611 1.77673 19.7039 4.03785 19.4966C4.26624 18.7567 4.68645 18.0848 5.26579 17.5481C6.09007 16.7845 7.16317 16.3638 8.28741 16.3638C9.12263 16.3638 9.93426 16.6026 10.6309 17.0341C10.954 16.4775 11.3773 15.9786 11.8817 15.5683C12.8281 14.7985 14.0222 14.3745 15.2441 14.3745C16.4661 14.3745 17.6602 14.7985 18.6066 15.5683C19.111 15.9786 19.5344 16.4775 19.8574 17.034C20.5539 16.6026 21.3657 16.3638 22.2009 16.3638C23.3251 16.3638 24.3983 16.7843 25.2226 17.548C25.8021 18.0849 26.2223 18.757 26.4506 19.4972C27.382 19.5839 28.2716 19.9626 28.9844 20.5916C29.9401 21.435 30.4883 22.65 30.4883 23.9252C30.4883 25.1996 29.9407 26.4142 28.9858 27.2575C28.2761 27.8844 27.3905 28.2629 26.463 28.352C25.9121 30.1941 24.1956 31.529 22.2009 31.529C21.3579 31.529 20.5396 31.2861 19.8393 30.8475C19.5151 31.3974 19.0927 31.89 18.5912 32.2947C17.6475 33.0566 16.4588 33.476 15.2441 33.476Z" fill="#FFF4F4"/>
</g>
<path id="Vector_13" d="M28.9844 20.5917C28.2716 19.9627 27.382 19.584 26.4506 19.4973C26.2223 18.7571 25.802 18.085 25.2226 17.5481C24.3983 16.7845 23.3252 16.3639 22.2009 16.3639C21.3657 16.3639 20.554 16.6027 19.8574 17.0342C19.5343 16.4776 19.111 15.9787 18.6066 15.5684C17.6602 14.7986 16.4661 14.3746 15.2441 14.3746V33.4761C16.4588 33.4761 17.6475 33.0566 18.5912 32.2949C19.0927 31.8901 19.5151 31.3976 19.8393 30.8477C20.5396 31.2863 21.358 31.5291 22.2009 31.5291C24.1956 31.5291 25.9121 30.1943 26.463 28.3521C27.3904 28.2631 28.2761 27.8846 28.9858 27.2577C29.9407 26.4143 30.4883 25.1997 30.4883 23.9253C30.4883 22.6502 29.9401 21.4351 28.9844 20.5917Z" fill="#F6EFEA"/>
<path id="Vector_14" d="M22.0505 2.53964C22.0454 1.97656 21.5874 1.52368 21.0254 1.52368C21.0238 1.52368 21.0221 1.52368 21.0205 1.52368V6.34869C21.0306 6.34896 21.0404 6.35019 21.0506 6.35019H21.0602C21.6265 6.345 22.0814 5.88166 22.0761 5.31544L22.0505 2.53964Z" fill="#FF8856"/>
</g>
</g>
<defs>
<clipPath id="clip0_103_223">
<rect width="35" height="35" fill="white"/>
</clipPath>
</defs>
</svg>
